<?xml version="1.0" encoding="utf-8"?>
<!-- Uploaded to: SVG Repo, www.svgrepo.com, Generator: SVG Repo Mixer Tools -->
<svg width="800px" height="800px" viewBox="0 0 24 24" fill="none" xmlns="http://www.w3.org/2000/svg">
<g clip-path="url(#clip0_15_129)">
<rect width="24" height="24" fill="white"/>
<path d="M22 11.5C22 12.6046 21.1046 13.5 20 13.5L19 13.5C17.8954 13.5 17 12.6046 17 11.5L17 5.5C17 4.39543 17.8954 3.5 19 3.5L20 3.5C21.1046 3.5 22 4.39543 22 5.5L22 11.5Z" stroke="#000000" stroke-linecap="round" stroke-linejoin="round"/>
<path d="M17 11.5C16 11.5 12 14 12 19C12 21 9 21 9 19C9 17 9 16 10 13.5L4 13.5C3.44772 13.5 3 13.0523 3 12.5L3 9.26039C3 8.77056 3.17976 8.29776 3.50518 7.93166L6.40331 4.67126C6.78285 4.24428 7.32686 3.99998 7.89813 3.99998L14.6667 3.99998C14.883 3.99998 15.0936 4.07016 15.2667 4.19998L17 5.49998" stroke="#000000" stroke-linecap="round" stroke-linejoin="round"/>
</g>
<defs>
<clipPath id="clip0_15_129">
<rect width="24" height="24" fill="white"/>
</clipPath>
</defs>
</svg>